# xmcd
#
# Track frame offsets:
#	150
#	15709
#	29115
#	45897
#	56677
#	69240
#	81345
#	94092
#	103852
#	114582
#	122777
#	134375
#	145707
#	160810
# Disc length: 2336 seconds
# Revision: 2
# Processed by: cddbd v1.5.1PL0 Copyright (c) Steve Scherf et al.
#
# Submitted via: libkcddb 0.10
#
DISCID=bd091e0e
DTITLE=Jan Preston - Wild Mood Swing
DYEAR=1900
DGENRE=
TTITLE0=The blue Llght Boogie
TTITLE1=Scared of the Dark
TTITLE2=At the Gate 
TTITLE3=Hey Preston
TTITLE4=Shout for Joy
TTITLE5=I was once young
TTITLE6=I want a little sugar in my bowl
TTITLE7=Old English to be your Mother
TTITLE8=Rock the boat
TTITLE9=The second hand car blues
TTITLE10=Wild mood swing
TTITLE11=Better said in bed
TTITLE12=The richest guy in the graveyard
TTITLE13=Farther's Day
EXTD=
EXTT0=
EXTT1=
EXTT2=
EXTT3=
EXTT4=
EXTT5=
EXTT6=
EXTT7=
EXTT8=
EXTT9=
EXTT10=
EXTT11=
EXTT12=
EXTT13=
PLAYORDER=
